<?xml version="1.0" standalone="no"?>
<svg xmlns:xlink="http://www.w3.org/1999/xlink" id="wave" style="transform:rotate(0deg); transition: 0.3s" viewBox="0 0 1440 140" version="1.1" xmlns="http://www.w3.org/2000/svg"><defs><linearGradient id="sw-gradient-0" x1="0" x2="0" y1="1" y2="0"><stop stop-color="rgba(55, 51, 137, 1)" offset="0%"/><stop stop-color="rgba(55, 51, 137, 1)" offset="100%"/></linearGradient></defs><path style="transform:translate(0, 0px); opacity:1" fill="url(#sw-gradient-0)" d="M0,42L34.3,46.7C68.6,51,137,61,206,67.7C274.3,75,343,79,411,72.3C480,65,549,47,617,39.7C685.7,33,754,37,823,46.7C891.4,56,960,70,1029,72.3C1097.1,75,1166,65,1234,56C1302.9,47,1371,37,1440,44.3C1508.6,51,1577,75,1646,81.7C1714.3,89,1783,79,1851,84C1920,89,1989,107,2057,95.7C2125.7,84,2194,42,2263,21C2331.4,0,2400,0,2469,11.7C2537.1,23,2606,47,2674,60.7C2742.9,75,2811,79,2880,88.7C2948.6,98,3017,112,3086,100.3C3154.3,89,3223,51,3291,39.7C3360,28,3429,42,3497,44.3C3565.7,47,3634,37,3703,28C3771.4,19,3840,9,3909,16.3C3977.1,23,4046,47,4114,56C4182.9,65,4251,61,4320,60.7C4388.6,61,4457,65,4526,77C4594.3,89,4663,107,4731,105C4800,103,4869,79,4903,67.7L4937.1,56L4937.1,140L4902.9,140C4868.6,140,4800,140,4731,140C4662.9,140,4594,140,4526,140C4457.1,140,4389,140,4320,140C4251.4,140,4183,140,4114,140C4045.7,140,3977,140,3909,140C3840,140,3771,140,3703,140C3634.3,140,3566,140,3497,140C3428.6,140,3360,140,3291,140C3222.9,140,3154,140,3086,140C3017.1,140,2949,140,2880,140C2811.4,140,2743,140,2674,140C2605.7,140,2537,140,2469,140C2400,140,2331,140,2263,140C2194.3,140,2126,140,2057,140C1988.6,140,1920,140,1851,140C1782.9,140,1714,140,1646,140C1577.1,140,1509,140,1440,140C1371.4,140,1303,140,1234,140C1165.7,140,1097,140,1029,140C960,140,891,140,823,140C754.3,140,686,140,617,140C548.6,140,480,140,411,140C342.9,140,274,140,206,140C137.1,140,69,140,34,140L0,140Z"/></svg>